<?xml version="1.0" encoding="UTF-8" standalone="no"?>
<!-- Created with Inkscape (http://www.inkscape.org/) -->
<svg
   xmlns:svg="http://www.w3.org/2000/svg"
   xmlns="http://www.w3.org/2000/svg"
   version="1.0"
   width="316"
   height="316"
   viewBox="0 0 1000 1000"
   id="svg2202">
  <defs
     id="defs2204" />
  <g
     id="layer1">
    <g
       transform="matrix(400.87075,0,0,250.36305,-13330.676,-5935.4812)"
       id="g2334">
      <path
         d="M 34.440945,24.554838 L 34.440945,24.554838 L 34.443159,24.558381 L 34.445374,24.558381 L 34.445374,24.533585 L 34.43873,24.533585 L 34.43873,24.547754 L 34.440945,24.554838 z "
         style="fill:#000000;fill-opacity:1;fill-rule:evenodd;stroke:none"
         id="path2299" />
      <path
         d="M 33.752215,24.445029 L 33.734498,24.452113 L 33.714567,24.466282 L 33.694636,24.480451 L 33.659203,24.512331 L 33.632628,24.544212 L 33.606053,24.579634 L 33.577264,24.622141 L 33.561762,24.646937 L 33.550689,24.671732 L 33.548474,24.685901 L 33.544045,24.70007 L 33.541831,24.714239 L 33.541831,24.728408 L 33.532972,24.753204 L 33.524114,24.781542 L 33.515256,24.816964 L 33.513041,24.845302 L 33.513041,24.923232 L 33.515256,24.95157 L 33.519685,24.979908 L 33.526329,25.004703 L 33.530758,25.029499 L 33.541831,25.075548 L 33.557333,25.121597 L 33.575049,25.160562 L 33.590551,25.203069 L 33.606053,25.245576 L 33.621555,25.288083 L 33.643701,25.39435 L 33.652559,25.383723 L 33.656988,25.376639 L 33.661417,25.366012 L 33.668061,25.351843 L 33.674705,25.337674 L 33.679134,25.327048 L 33.681348,25.312879 L 33.685778,25.295167 L 33.687992,25.259745 L 33.687992,25.217238 L 33.685778,25.199527 L 33.681348,25.181816 L 33.679134,25.167647 L 33.67249,25.160562 L 33.663632,25.082633 L 33.661417,25.082633 L 33.659203,25.033041 L 33.654774,25.029499 L 33.650344,25.029499 L 33.64813,25.025957 L 33.64813,25.018872 L 33.64813,25.011788 L 33.64813,24.98345 L 33.652559,24.955112 L 33.654774,24.926774 L 33.661417,24.898436 L 33.674705,24.845302 L 33.692421,24.795711 L 33.705709,24.763831 L 33.716781,24.742577 L 33.714567,24.739035 L 33.710138,24.739035 L 33.703494,24.746119 L 33.694636,24.749662 L 33.70128,24.735493 L 33.712352,24.714239 L 33.72564,24.696528 L 33.734498,24.682359 L 33.745571,24.664648 L 33.754429,24.650479 L 33.767717,24.63631 L 33.781004,24.622141 L 33.792077,24.607972 L 33.80315,24.593803 L 33.823081,24.579634 L 33.840797,24.572549 L 33.856299,24.565465 L 33.871801,24.561923 L 33.900591,24.558381 L 33.92938,24.561923 L 33.984744,24.572549 L 34.05561,24.579634 L 34.057825,24.579634 L 34.062254,24.576092 L 34.064469,24.569007 L 34.068898,24.558381 L 34.073327,24.540669 L 34.075541,24.522958 L 34.073327,24.515874 L 34.071112,24.505247 L 34.066683,24.498162 L 34.060039,24.491078 L 34.042323,24.476909 L 34.022392,24.466282 L 34.000246,24.455655 L 33.9781,24.452113 L 33.958169,24.448571 L 33.942667,24.445029 L 33.938238,24.445029 L 33.90502,24.452113 L 33.871801,24.459198 L 33.854085,24.466282 L 33.840797,24.473367 L 33.82751,24.483993 L 33.818652,24.498162 L 33.805364,24.501705 L 33.787648,24.512331 L 33.769931,24.522958 L 33.75,24.540669 L 33.712352,24.572549 L 33.690207,24.597345 L 33.668061,24.632768 L 33.643701,24.678817 L 33.630413,24.703613 L 33.621555,24.728408 L 33.612697,24.753204 L 33.610482,24.774457 L 33.619341,24.774457 L 33.62377,24.778 L 33.625984,24.781542 L 33.614911,24.816964 L 33.599409,24.859471 L 33.592766,24.894894 L 33.588337,24.930316 L 33.583907,24.965739 L 33.583907,25.004703 L 33.588337,25.054295 L 33.597195,25.100344 L 33.606053,25.132224 L 33.619341,25.185358 L 33.625984,25.213696 L 33.630413,25.238491 L 33.630413,25.249118 L 33.630413,25.256203 L 33.630413,25.259745 L 33.628199,25.263287 L 33.62377,25.238491 L 33.617126,25.213696 L 33.608268,25.192442 L 33.599409,25.167647 L 33.588337,25.132224 L 33.579478,25.089717 L 33.575049,25.054295 L 33.566191,24.994077 L 33.561762,24.965739 L 33.557333,24.940943 L 33.552904,24.923232 L 33.550689,24.916147 L 33.54626,24.919689 L 33.544045,24.926774 L 33.541831,24.933858 L 33.541831,24.944485 L 33.537402,24.944485 L 33.535187,24.940943 L 33.535187,24.940943 L 33.535187,24.933858 L 33.535187,24.912605 L 33.537402,24.891351 L 33.54626,24.848845 L 33.552904,24.80988 L 33.559547,24.785084 L 33.566191,24.763831 L 33.579478,24.728408 L 33.590551,24.696528 L 33.59498,24.675275 L 33.590551,24.664648 L 33.588337,24.657563 L 33.599409,24.632768 L 33.62377,24.597345 L 33.652559,24.558381 L 33.670276,24.537127 L 33.69685,24.512331 L 33.721211,24.487536 L 33.734498,24.480451 L 33.752215,24.469824 L 33.758858,24.46274 L 33.767717,24.455655 L 33.772146,24.448571 L 33.77436,24.441486 L 33.778789,24.441486 L 33.785433,24.437944 L 33.794291,24.437944 L 33.792077,24.43086 L 33.789862,24.43086 L 33.785433,24.427317 L 33.783219,24.43086 L 33.776575,24.434402 L 33.772146,24.441486 L 33.752215,24.445029 z "
         style="fill:#ffffff;fill-opacity:1;fill-rule:evenodd;stroke:none"
         id="path2301" />
      <path
         d="M 34.073327,24.639852 L 34.073327,24.650479 L 34.075541,24.657563 L 34.07997,24.657563 L 34.07997,24.646937 L 34.082185,24.632768 L 34.082185,24.607972 L 34.07997,24.597345 L 34.07997,24.583176 L 34.075541,24.583176 L 34.073327,24.597345 L 34.073327,24.607972 L 34.073327,24.639852 z "
         style="fill:#ffffff;fill-opacity:1;fill-rule:evenodd;stroke:none"
         id="path2303" />
      <path
         d="M 34.908219,25.004703 L 34.910433,25.004703 L 34.912648,25.008246 L 34.914862,25.008246 L 34.917077,25.001161 L 34.914862,24.986992 L 34.908219,24.986992 L 34.908219,24.997619 L 34.908219,25.004703 z "
         style="fill:#000000;fill-opacity:1;fill-rule:evenodd;stroke:none"
         id="path2305" />
      <path
         d="M 33.869587,25.206611 L 33.880659,25.199527 L 33.893947,25.192442 L 33.900591,25.195985 L 33.907234,25.199527 L 33.909449,25.210153 L 33.911663,25.22078 L 33.893947,25.25266 L 33.882874,25.245576 L 33.874016,25.238491 L 33.869587,25.238491 L 33.869587,25.242034 L 33.869587,25.245576 L 33.874016,25.256203 L 33.880659,25.266829 L 33.889518,25.277456 L 33.900591,25.280998 L 33.913878,25.284541 L 33.918307,25.280998 L 33.924951,25.266829 L 33.931594,25.25266 L 33.936024,25.234949 L 33.936024,25.195985 L 33.933809,25.181816 L 33.92938,25.171189 L 33.922736,25.160562 L 33.913878,25.15702 L 33.900591,25.15702 L 33.889518,25.160562 L 33.880659,25.167647 L 33.871801,25.178273 L 33.869587,25.192442 L 33.869587,25.206611 z "
         style="fill:#000000;fill-opacity:1;fill-rule:evenodd;stroke:none"
         id="path2307" />
      <path
         d="M 33.869587,25.192442 L 33.871801,25.178273 L 33.880659,25.167647 L 33.889518,25.160562 L 33.900591,25.15702 L 33.913878,25.15702 L 33.922736,25.160562 L 33.92938,25.171189 L 33.933809,25.181816 L 33.936024,25.195985 L 33.936024,25.234949 L 33.931594,25.25266 L 33.924951,25.266829 L 33.918307,25.280998 L 33.913878,25.284541 L 33.900591,25.280998 L 33.889518,25.277456 L 33.880659,25.266829 L 33.874016,25.256203 L 33.869587,25.245576 L 33.869587,25.242034 L 33.869587,25.238491 L 33.874016,25.238491 L 33.882874,25.245576 L 33.893947,25.25266 L 33.911663,25.22078 L 33.909449,25.210153 L 33.907234,25.199527 L 33.900591,25.195985 L 33.893947,25.192442 L 33.880659,25.199527 L 33.869587,25.206611 L 33.869587,25.192442 z M 33.85187,25.213696 L 33.85187,25.245576 L 33.854085,25.273914 L 33.860728,25.29871 L 33.869587,25.327048 L 33.889518,25.327048 L 33.920522,25.323505 L 33.951526,25.323505 L 33.969242,25.316421 L 33.973671,25.284541 L 33.980315,25.25266 L 33.980315,25.174731 L 33.9781,25.149935 L 33.973671,25.12514 L 33.967028,25.107428 L 33.960384,25.096802 L 33.949311,25.086175 L 33.938238,25.07909 L 33.927165,25.07909 L 33.916093,25.07909 L 33.902805,25.086175 L 33.891732,25.093259 L 33.880659,25.103886 L 33.871801,25.121597 L 33.862943,25.139309 L 33.856299,25.160562 L 33.85187,25.185358 L 33.85187,25.213696 z "
         style="fill:#ffffff;fill-opacity:1;fill-rule:evenodd;stroke:none"
         id="path2309" />
      <path
         d="M 33.614911,25.64585 L 33.617126,25.660019 L 33.621555,25.660019 L 33.62377,25.617512 L 33.62377,25.610427 L 33.621555,25.606885 L 33.619341,25.603343 L 33.614911,25.603343 L 33.614911,25.635223 L 33.614911,25.64585 z "
         style="fill:#ffffff;fill-opacity:1;fill-rule:evenodd;stroke:none"
         id="path2311" />
      <path
         d="M 33.568406,25.596258 L 33.566191,25.606885 L 33.566191,25.613969 L 33.57062,25.617512 L 33.577264,25.617512 L 33.581693,25.621054 L 33.588337,25.631681 L 33.597195,25.64585 L 33.601624,25.635223 L 33.603839,25.624596 L 33.601624,25.613969 L 33.601624,25.5998 L 33.606053,25.5998 L 33.608268,25.5998 L 33.610482,25.596258 L 33.612697,25.592716 L 33.612697,25.585631 L 33.610482,25.582089 L 33.608268,25.582089 L 33.606053,25.582089 L 33.599409,25.585631 L 33.590551,25.592716 L 33.581693,25.592716 L 33.572835,25.592716 L 33.568406,25.596258 z "
         style="fill:#ffffff;fill-opacity:1;fill-rule:evenodd;stroke:none"
         id="path2313" />
      <path
         d="M 33.812008,25.656476 L 33.772146,25.684814 L 33.77436,25.684814 L 33.763287,25.805251 L 33.763287,25.815877 L 33.767717,25.830046 L 33.772146,25.840673 L 33.778789,25.847757 L 33.783219,25.844215 L 33.789862,25.840673 L 33.796506,25.830046 L 33.80315,25.81942 L 33.820866,25.787539 L 33.836368,25.752117 L 33.849656,25.713152 L 33.862943,25.67773 L 33.871801,25.64585 L 33.878445,25.624596 L 33.874016,25.610427 L 33.871801,25.606885 L 33.823081,25.649392 L 33.812008,25.656476 z "
         style="fill:#ffffff;fill-opacity:1;fill-rule:evenodd;stroke:none"
         id="path2315" />
      <path
         d="M 34.604823,24.172276 L 34.604823,24.182903 L 34.598179,24.189987 L 34.589321,24.200614 L 34.580463,24.218325 L 34.571604,24.239579 L 34.551673,24.28917 L 34.533957,24.349388 L 34.518455,24.409606 L 34.507382,24.46274 L 34.498524,24.508789 L 34.494094,24.537127 L 34.494094,24.544212 L 34.496309,24.551296 L 34.498524,24.554838 L 34.500738,24.554838 L 34.505167,24.558381 L 34.502953,24.632768 L 34.496309,24.703613 L 34.49188,24.739035 L 34.49188,24.774457 L 34.49188,24.813422 L 34.496309,24.852387 L 34.502953,24.898436 L 34.507382,24.955112 L 34.518455,24.969281 L 34.525098,24.98345 L 34.527313,25.001161 L 34.531742,25.029499 L 34.536171,25.072006 L 34.54503,25.118055 L 34.560531,25.203069 L 34.578248,25.288083 L 34.59375,25.373097 L 34.607037,25.458111 L 34.613681,25.507702 L 34.61811,25.550209 L 34.620325,25.575005 L 34.622539,25.5998 L 34.622539,25.617512 L 34.624754,25.628138 L 34.626969,25.631681 L 34.638041,25.631681 L 34.64247,25.638765 L 34.64247,25.652934 L 34.64247,25.808793 L 34.64247,25.833589 L 34.640256,25.854842 L 34.638041,25.879638 L 34.633612,25.893807 L 34.633612,25.897349 L 34.635827,25.904433 L 34.638041,25.907976 L 34.640256,25.907976 L 34.644685,25.911518 L 34.64247,25.954025 L 34.638041,26.000074 L 34.629183,26.049665 L 34.620325,26.095715 L 34.607037,26.138222 L 34.59375,26.180728 L 34.580463,26.212609 L 34.56939,26.240947 L 34.551673,26.272827 L 34.538386,26.304707 L 34.522884,26.336587 L 34.505167,26.364925 L 34.49188,26.389721 L 34.469734,26.428686 L 34.447589,26.46765 L 34.436516,26.488904 L 34.445374,26.503073 L 34.454232,26.520784 L 34.469734,26.513699 L 34.483022,26.503073 L 34.494094,26.495988 L 34.505167,26.481819 L 34.527313,26.457024 L 34.549459,26.432228 L 34.567175,26.40389 L 34.587106,26.37201 L 34.604823,26.340129 L 34.620325,26.304707 L 34.629183,26.286996 L 34.635827,26.269285 L 34.644685,26.251573 L 34.651329,26.233862 L 34.662402,26.191355 L 34.675689,26.152391 L 34.684547,26.109884 L 34.691191,26.05675 L 34.693406,26.028412 L 34.69562,26.003616 L 34.69562,25.978821 L 34.69562,25.94694 L 34.700049,25.950483 L 34.704478,25.954025 L 34.711122,25.954025 L 34.713337,25.950483 L 34.715551,25.94694 L 34.717766,25.939856 L 34.71998,25.929229 L 34.722195,25.904433 L 34.722195,25.872553 L 34.724409,25.812335 L 34.722195,25.77337 L 34.71998,25.727321 L 34.715551,25.681272 L 34.711122,25.638765 L 34.704478,25.5998 L 34.700049,25.557293 L 34.69562,25.514787 L 34.691191,25.468737 L 34.688976,25.422688 L 34.684547,25.373097 L 34.677904,25.33059 L 34.675689,25.29871 L 34.673474,25.280998 L 34.669045,25.266829 L 34.666831,25.242034 L 34.657972,25.195985 L 34.649114,25.153478 L 34.653543,25.146393 L 34.655758,25.139309 L 34.6469,25.093259 L 34.635827,25.040126 L 34.633612,25.022415 L 34.626969,24.986992 L 34.622539,24.95157 L 34.620325,24.933858 L 34.620325,24.90552 L 34.615896,24.880725 L 34.613681,24.852387 L 34.609252,24.820507 L 34.607037,24.795711 L 34.604823,24.756746 L 34.600394,24.724866 L 34.598179,24.703613 L 34.598179,24.696528 L 34.598179,24.685901 L 34.600394,24.675275 L 34.602608,24.66819 L 34.607037,24.664648 L 34.615896,24.675275 L 34.620325,24.643394 L 34.620325,24.611514 L 34.622539,24.576092 L 34.626969,24.547754 L 34.631398,24.515874 L 34.631398,24.483993 L 34.638041,24.459198 L 34.644685,24.427317 L 34.649114,24.39898 L 34.653543,24.374184 L 34.660187,24.345846 L 34.666831,24.32105 L 34.675689,24.28917 L 34.688976,24.25729 L 34.704478,24.221867 L 34.722195,24.186445 L 34.739911,24.154565 L 34.757628,24.122684 L 34.775344,24.097889 L 34.790846,24.076635 L 34.812992,24.048297 L 34.843996,24.00579 L 34.859498,23.984537 L 34.875,23.966826 L 34.886073,23.956199 L 34.894931,23.949114 L 34.886073,23.977452 L 34.875,24.002248 L 34.892717,23.998706 L 34.908219,23.984537 L 34.92372,23.970368 L 34.937008,23.959741 L 34.950295,23.952657 L 34.974656,23.94203 L 34.996801,23.934946 L 35.007874,23.931403 L 35.036663,23.931403 L 35.069882,23.931403 L 35.083169,23.934946 L 35.096457,23.934946 L 35.109744,23.94203 L 35.123031,23.945572 L 35.138533,23.945572 L 35.142963,23.945572 L 35.145177,23.938488 L 35.136319,23.924319 L 35.120817,23.91015 L 35.1031,23.899523 L 35.083169,23.888896 L 35.058809,23.885354 L 35.034449,23.87827 L 35.007874,23.874727 L 34.981299,23.874727 L 34.92815,23.874727 L 34.881644,23.881812 L 34.841781,23.888896 L 34.819636,23.899523 L 34.795276,23.917234 L 34.77313,23.931403 L 34.753199,23.949114 L 34.731053,23.970368 L 34.697835,24.00579 L 34.651329,24.062466 L 34.629183,24.094346 L 34.609252,24.122684 L 34.600394,24.136853 L 34.595965,24.151022 L 34.591535,24.161649 L 34.589321,24.168734 L 34.604823,24.172276 z "
         style="fill:#ffffff;fill-opacity:1;fill-rule:evenodd;stroke:none"
         id="path2317" />
      <path
         d="M 33.927165,25.652934 L 33.933809,25.674188 L 33.936024,25.695441 L 33.940453,25.716694 L 33.936024,25.752117 L 33.92938,25.794624 L 33.924951,25.815877 L 33.920522,25.833589 L 33.916093,25.847757 L 33.911663,25.858384 L 33.911663,25.876095 L 33.891732,25.918602 L 33.871801,25.968194 L 33.862943,25.989447 L 33.85187,26.017785 L 33.847441,26.031954 L 33.843012,26.046123 L 33.840797,26.060292 L 33.840797,26.074461 L 33.840797,26.078003 L 33.840797,26.081546 L 33.843012,26.08863 L 33.845226,26.08863 L 33.849656,26.092172 L 33.854085,26.092172 L 33.858514,26.08863 L 33.865157,26.08863 L 33.860728,26.070919 L 33.858514,26.067377 L 33.865157,26.042581 L 33.874016,26.021327 L 33.880659,26.010701 L 33.885089,26.003616 L 33.893947,26.000074 L 33.90502,26.000074 L 33.924951,26.000074 L 33.938238,26.003616 L 33.947096,26.010701 L 33.960384,26.021327 L 33.98253,26.042581 L 34.002461,26.063834 L 34.002461,26.053208 L 34.002461,26.046123 L 34.009104,26.035496 L 34.015748,26.028412 L 34.024606,26.02487 L 34.042323,26.014243 L 34.057825,26.010701 L 34.095472,26.021327 L 34.095472,26.007158 L 34.093258,25.996532 L 34.093258,25.99299 L 34.091043,25.985905 L 34.086614,25.985905 L 34.075541,25.985905 L 34.068898,25.99299 L 34.060039,25.985905 L 34.051181,25.978821 L 34.029035,25.99299 L 34.011319,26.003616 L 34.009104,26.003616 L 34.004675,26.000074 L 34.000246,25.989447 L 33.998031,25.978821 L 33.995817,25.964652 L 33.991388,25.932771 L 33.991388,25.907976 L 33.991388,25.812335 L 33.998031,25.769828 L 34.004675,25.720237 L 34.011319,25.706068 L 34.017963,25.681272 L 34.024606,25.656476 L 34.026821,25.631681 L 34.026821,25.592716 L 34.024606,25.582089 L 34.020177,25.571462 L 34.015748,25.564378 L 34.011319,25.560836 L 33.998031,25.560836 L 33.984744,25.564378 L 33.973671,25.571462 L 33.962598,25.582089 L 33.95374,25.592716 L 33.947096,25.5998 L 33.936024,25.613969 L 33.927165,25.628138 L 33.922736,25.642307 L 33.927165,25.652934 z "
         style="fill:#ffffff;fill-opacity:1;fill-rule:evenodd;stroke:none"
         id="path2319" />
      <path
         d="M 34.029035,26.170102 L 34.037894,26.180728 L 34.037894,26.194897 L 34.05561,26.226778 L 34.057825,26.226778 L 34.053396,26.255116 L 34.035679,26.265742 L 34.037894,26.269285 L 34.037894,26.272827 L 34.044537,26.276369 L 34.048967,26.272827 L 34.053396,26.272827 L 34.05561,26.265742 L 34.057825,26.258658 L 34.064469,26.258658 L 34.071112,26.251573 L 34.075541,26.240947 L 34.093258,26.237404 L 34.119833,26.23032 L 34.130906,26.223235 L 34.139764,26.216151 L 34.144193,26.209066 L 34.146407,26.201982 L 34.148622,26.194897 L 34.150837,26.187813 L 34.150837,26.145306 L 34.148622,26.134679 L 34.146407,26.124053 L 34.141978,26.113426 L 34.137549,26.102799 L 34.126476,26.081546 L 34.119833,26.078003 L 34.126476,26.099257 L 34.13312,26.12051 L 34.137549,26.145306 L 34.139764,26.170102 L 34.139764,26.180728 L 34.137549,26.191355 L 34.13312,26.19844 L 34.128691,26.205524 L 34.122047,26.212609 L 34.115404,26.216151 L 34.106545,26.219693 L 34.095472,26.223235 L 34.0844,26.219693 L 34.075541,26.216151 L 34.066683,26.209066 L 34.060039,26.19844 L 34.048967,26.180728 L 34.037894,26.166559 L 34.033465,26.141764 L 34.024606,26.106341 L 34.017963,26.092172 L 34.011319,26.078003 L 34.00689,26.067377 L 34.002461,26.063834 L 34.026821,26.159475 L 34.029035,26.170102 z "
         style="fill:#ffffff;fill-opacity:1;fill-rule:evenodd;stroke:none"
         id="path2321" />
      <path
         d="M 34.49188,24.044755 L 34.476378,24.062466 L 34.460876,24.090804 L 34.443159,24.122684 L 34.427657,24.158107 L 34.412156,24.193529 L 34.401083,24.228952 L 34.394439,24.264374 L 34.39001,24.292712 L 34.392224,24.299797 L 34.394439,24.303339 L 34.409941,24.28917 L 34.418799,24.275001 L 34.423228,24.275001 L 34.425443,24.278543 L 34.425443,24.282085 L 34.425443,24.285628 L 34.425443,24.28917 L 34.421014,24.306881 L 34.409941,24.342304 L 34.398868,24.377726 L 34.392224,24.406064 L 34.387795,24.437944 L 34.381152,24.473367 L 34.374508,24.512331 L 34.372293,24.547754 L 34.372293,24.618599 L 34.378937,24.618599 L 34.383366,24.611514 L 34.387795,24.607972 L 34.39001,24.600887 L 34.394439,24.586718 L 34.401083,24.572549 L 34.407726,24.540669 L 34.409941,24.540669 L 34.416585,24.547754 L 34.409941,24.622141 L 34.407726,24.70007 L 34.407726,24.739035 L 34.409941,24.778 L 34.412156,24.816964 L 34.418799,24.852387 L 34.429872,24.912605 L 34.440945,24.976365 L 34.452018,25.040126 L 34.460876,25.103886 L 34.465305,25.142851 L 34.474163,25.185358 L 34.483022,25.231407 L 34.494094,25.273914 L 34.51624,25.355386 L 34.536171,25.436857 L 34.551673,25.497075 L 34.553888,25.518329 L 34.560531,25.557293 L 34.567175,25.592716 L 34.571604,25.613969 L 34.573819,25.649392 L 34.576033,25.681272 L 34.582677,25.70961 L 34.584892,25.74149 L 34.584892,25.805251 L 34.584892,25.869011 L 34.582677,25.932771 L 34.580463,25.996532 L 34.571604,26.05675 L 34.560531,26.12051 L 34.553888,26.148848 L 34.54503,26.177186 L 34.536171,26.205524 L 34.525098,26.233862 L 34.505167,26.276369 L 34.476378,26.336587 L 34.460876,26.37201 L 34.449803,26.400348 L 34.440945,26.425143 L 34.436516,26.442855 L 34.436516,26.439312 L 34.425443,26.457024 L 34.432087,26.453481 L 34.434301,26.453481 L 34.436516,26.449939 L 34.436516,26.442855 L 34.443159,26.439312 L 34.447589,26.432228 L 34.454232,26.425143 L 34.458661,26.414517 L 34.469734,26.396805 L 34.478593,26.379094 L 34.496309,26.347214 L 34.514026,26.308249 L 34.529528,26.269285 L 34.54503,26.23032 L 34.558317,26.194897 L 34.56939,26.159475 L 34.578248,26.12051 L 34.587106,26.078003 L 34.600394,25.996532 L 34.609252,25.91506 L 34.611467,25.872553 L 34.611467,25.826504 L 34.611467,25.791082 L 34.609252,25.762744 L 34.609252,25.737948 L 34.609252,25.727321 L 34.604823,25.720237 L 34.598179,25.70961 L 34.598179,25.649392 L 34.595965,25.5998 L 34.59375,25.553751 L 34.589321,25.511244 L 34.582677,25.47228 L 34.576033,25.436857 L 34.567175,25.397892 L 34.556102,25.351843 L 34.547244,25.312879 L 34.536171,25.277456 L 34.529528,25.249118 L 34.522884,25.22078 L 34.51624,25.1889 L 34.511811,25.153478 L 34.507382,25.121597 L 34.500738,25.093259 L 34.494094,25.064921 L 34.485236,25.040126 L 34.483022,24.98345 L 34.478593,24.965739 L 34.474163,24.948027 L 34.469734,24.926774 L 34.465305,24.901978 L 34.458661,24.848845 L 34.454232,24.792169 L 34.449803,24.675275 L 34.445374,24.576092 L 34.452018,24.569007 L 34.463091,24.547754 L 34.469734,24.487536 L 34.476378,24.427317 L 34.480807,24.395437 L 34.485236,24.363557 L 34.489665,24.335219 L 34.498524,24.310423 L 34.509596,24.267916 L 34.520669,24.228952 L 34.531742,24.193529 L 34.547244,24.154565 L 34.564961,24.119142 L 34.580463,24.090804 L 34.595965,24.069551 L 34.622539,24.030586 L 34.644685,23.995164 L 34.655758,23.977452 L 34.649114,23.966826 L 34.633612,23.952657 L 34.635827,23.952657 L 34.629183,23.945572 L 34.589321,23.963283 L 34.556102,23.980995 L 34.542815,23.991621 L 34.527313,24.00579 L 34.509596,24.023502 L 34.49188,24.044755 z M 34.197343,24.692986 L 34.195128,24.70007 L 34.195128,24.707155 L 34.18627,24.696528 L 34.181841,24.685901 L 34.177411,24.671732 L 34.175197,24.657563 L 34.170768,24.622141 L 34.170768,24.579634 L 34.155266,24.551296 L 34.146407,24.554838 L 34.144193,24.554838 L 34.141978,24.558381 L 34.139764,24.569007 L 34.13312,24.586718 L 34.130906,24.597345 L 34.126476,24.63631 L 34.124262,24.671732 L 34.128691,24.70007 L 34.135335,24.724866 L 34.130906,24.73195 L 34.128691,24.742577 L 34.128691,24.749662 L 34.128691,24.749662 L 34.130906,24.753204 L 34.135335,24.753204 L 34.137549,24.753204 L 34.141978,24.749662 L 34.146407,24.746119 L 34.150837,24.735493 L 34.153051,24.728408 L 34.153051,24.724866 L 34.150837,24.685901 L 34.153051,24.682359 L 34.15748,24.678817 L 34.161909,24.682359 L 34.166339,24.692986 L 34.172982,24.707155 L 34.175197,24.717782 L 34.18627,24.739035 L 34.192913,24.753204 L 34.197343,24.749662 L 34.203986,24.739035 L 34.206201,24.728408 L 34.21063,24.717782 L 34.197343,24.692986 z "
         style="fill:#ffffff;fill-opacity:1;fill-rule:evenodd;stroke:none"
         id="path2323" />
      <path
         d="M 34.629183,23.945572 L 34.61811,23.938488 L 34.598179,23.927861 L 34.576033,23.924319 L 34.558317,23.920777 L 34.533957,23.924319 L 34.511811,23.927861 L 34.487451,23.934946 L 34.465305,23.945572 L 34.445374,23.956199 L 34.423228,23.970368 L 34.405512,23.988079 L 34.385581,24.00579 L 34.367864,24.027044 L 34.350148,24.05184 L 34.334646,24.076635 L 34.319144,24.101431 L 34.305856,24.129769 L 34.292569,24.161649 L 34.279281,24.193529 L 34.268209,24.228952 L 34.257136,24.260832 L 34.243848,24.292712 L 34.230561,24.328135 L 34.217274,24.360015 L 34.206201,24.381268 L 34.199557,24.39898 L 34.199557,24.406064 L 34.206201,24.406064 L 34.212844,24.395437 L 34.228346,24.384811 L 34.230561,24.413148 L 34.232776,24.473367 L 34.232776,24.537127 L 34.237205,24.579634 L 34.248278,24.629225 L 34.257136,24.682359 L 34.261565,24.710697 L 34.268209,24.735493 L 34.274852,24.756746 L 34.283711,24.778 L 34.296998,24.80988 L 34.310285,24.845302 L 34.323573,24.880725 L 34.332431,24.912605 L 34.343504,24.948027 L 34.356791,24.98345 L 34.367864,25.01533 L 34.378937,25.054295 L 34.381152,25.068464 L 34.381152,25.082633 L 34.381152,25.089717 L 34.383366,25.096802 L 34.385581,25.100344 L 34.387795,25.103886 L 34.396654,25.086175 L 34.418799,25.128682 L 34.436516,25.178273 L 34.452018,25.231407 L 34.46752,25.284541 L 34.480807,25.327048 L 34.494094,25.397892 L 34.507382,25.47228 L 34.511811,25.525413 L 34.511811,25.550209 L 34.520669,25.550209 L 34.525098,25.550209 L 34.527313,25.557293 L 34.531742,25.564378 L 34.533957,25.575005 L 34.5406,25.5998 L 34.54503,25.628138 L 34.551673,25.691899 L 34.553888,25.74149 L 34.558317,25.748575 L 34.558317,25.755659 L 34.558317,25.876095 L 34.558317,25.893807 L 34.553888,25.922145 L 34.553888,25.943398 L 34.551673,25.968194 L 34.54503,26.021327 L 34.533957,26.081546 L 34.518455,26.141764 L 34.502953,26.187813 L 34.49188,26.219693 L 34.480807,26.255116 L 34.469734,26.286996 L 34.456447,26.315334 L 34.443159,26.340129 L 34.427657,26.375552 L 34.418799,26.393263 L 34.409941,26.407432 L 34.403297,26.418059 L 34.396654,26.425143 L 34.383366,26.421601 L 34.367864,26.410974 L 34.352362,26.396805 L 34.33686,26.379094 L 34.305856,26.336587 L 34.277067,26.283454 L 34.246063,26.23032 L 34.219488,26.184271 L 34.203986,26.163017 L 34.192913,26.145306 L 34.179626,26.134679 L 34.168553,26.127595 L 34.172982,26.092172 L 34.181841,26.063834 L 34.18627,26.028412 L 34.188484,25.989447 L 34.18627,25.964652 L 34.184055,25.943398 L 34.177411,25.925687 L 34.170768,25.911518 L 34.164124,25.897349 L 34.155266,25.886722 L 34.144193,25.879638 L 34.13312,25.869011 L 34.122047,25.861926 L 34.110974,25.854842 L 34.102116,25.847757 L 34.091043,25.833589 L 34.0844,25.81942 L 34.077756,25.805251 L 34.073327,25.783997 L 34.071112,25.766286 L 34.071112,25.684814 L 34.073327,25.656476 L 34.077756,25.628138 L 34.0844,25.5998 L 34.093258,25.585631 L 34.095472,25.56792 L 34.102116,25.546667 L 34.110974,25.521871 L 34.122047,25.493533 L 34.146407,25.443942 L 34.164124,25.408519 L 34.181841,25.36247 L 34.197343,25.319963 L 34.206201,25.295167 L 34.215059,25.270372 L 34.221703,25.249118 L 34.228346,25.224322 L 34.232776,25.203069 L 34.239419,25.171189 L 34.243848,25.135766 L 34.248278,25.110971 L 34.250492,25.086175 L 34.254921,25.043668 L 34.254921,25.004703 L 34.254921,24.976365 L 34.252707,24.944485 L 34.252707,24.909063 L 34.248278,24.877183 L 34.243848,24.852387 L 34.239419,24.824049 L 34.23499,24.795711 L 34.228346,24.767373 L 34.221703,24.746119 L 34.221703,24.721324 L 34.215059,24.714239 L 34.208415,24.724866 L 34.203986,24.739035 L 34.199557,24.749662 L 34.192913,24.753204 L 34.18627,24.739035 L 34.175197,24.717782 L 34.172982,24.707155 L 34.166339,24.692986 L 34.161909,24.682359 L 34.15748,24.678817 L 34.153051,24.682359 L 34.150837,24.685901 L 34.153051,24.724866 L 34.153051,24.728408 L 34.150837,24.735493 L 34.146407,24.746119 L 34.141978,24.749662 L 34.137549,24.753204 L 34.135335,24.753204 L 34.130906,24.753204 L 34.128691,24.749662 L 34.128691,24.749662 L 34.128691,24.742577 L 34.130906,24.73195 L 34.135335,24.724866 L 34.128691,24.70007 L 34.124262,24.671732 L 34.126476,24.63631 L 34.130906,24.597345 L 34.13312,24.586718 L 34.139764,24.569007 L 34.141978,24.558381 L 34.144193,24.554838 L 34.146407,24.554838 L 34.155266,24.551296 L 34.170768,24.579634 L 34.170768,24.622141 L 34.175197,24.657563 L 34.177411,24.671732 L 34.181841,24.685901 L 34.18627,24.696528 L 34.195128,24.707155 L 34.197343,24.685901 L 34.197343,24.664648 L 34.195128,24.643394 L 34.190699,24.622141 L 34.18627,24.600887 L 34.184055,24.576092 L 34.184055,24.551296 L 34.18627,24.530043 L 34.18627,24.522958 L 34.184055,24.512331 L 34.177411,24.498162 L 34.170768,24.487536 L 34.166339,24.480451 L 34.146407,24.480451 L 34.126476,24.480451 L 34.10876,24.491078 L 34.097687,24.501705 L 34.095472,24.491078 L 34.088829,24.476909 L 34.082185,24.469824 L 34.075541,24.459198 L 34.060039,24.441486 L 34.048967,24.423775 L 34.037894,24.423775 L 34.033465,24.416691 L 34.026821,24.409606 L 34.020177,24.406064 L 34.011319,24.402522 L 33.993602,24.39898 L 33.973671,24.39898 L 33.933809,24.402522 L 33.90502,24.39898 L 33.889518,24.395437 L 33.871801,24.391895 L 33.854085,24.388353 L 33.836368,24.388353 L 33.805364,24.391895 L 33.77436,24.395437 L 33.741142,24.406064 L 33.712352,24.420233 L 33.681348,24.441486 L 33.652559,24.46274 L 33.628199,24.491078 L 33.603839,24.522958 L 33.586122,24.554838 L 33.566191,24.593803 L 33.548474,24.632768 L 33.535187,24.66819 L 33.5219,24.710697 L 33.510827,24.756746 L 33.506398,24.778 L 33.497539,24.799253 L 33.49311,24.80988 L 33.488681,24.820507 L 33.484252,24.827591 L 33.479823,24.831133 L 33.479823,24.84176 L 33.482037,24.845302 L 33.486467,24.84176 L 33.490896,24.838218 L 33.497539,24.845302 L 33.497539,24.901978 L 33.499754,24.944485 L 33.504183,24.98345 L 33.510827,25.029499 L 33.515256,25.050752 L 33.519685,25.068464 L 33.5219,25.086175 L 33.524114,25.110971 L 33.530758,25.149935 L 33.535187,25.192442 L 33.541831,25.192442 L 33.539616,25.1889 L 33.552904,25.171189 L 33.555118,25.174731 L 33.559547,25.195985 L 33.568406,25.22078 L 33.572835,25.227865 L 33.577264,25.242034 L 33.579478,25.25266 L 33.583907,25.263287 L 33.588337,25.280998 L 33.59498,25.309336 L 33.599409,25.341217 L 33.601624,25.366012 L 33.601624,25.433315 L 33.599409,25.454568 L 33.59498,25.479364 L 33.588337,25.50416 L 33.581693,25.532498 L 33.572835,25.557293 L 33.561762,25.578547 L 33.552904,25.596258 L 33.54626,25.606885 L 33.544045,25.638765 L 33.544045,25.652934 L 33.544045,25.660019 L 33.54626,25.667103 L 33.550689,25.674188 L 33.555118,25.681272 L 33.563976,25.691899 L 33.575049,25.695441 L 33.601624,25.691899 L 33.606053,25.70961 L 33.654774,25.70961 L 33.681348,25.70961 L 33.712352,25.70961 L 33.736713,25.698983 L 33.761073,25.695441 L 33.761073,25.702525 L 33.754429,25.702525 L 33.75,25.706068 L 33.745571,25.713152 L 33.745571,25.720237 L 33.745571,25.801708 L 33.747785,25.826504 L 33.754429,25.8513 L 33.758858,25.861926 L 33.763287,25.872553 L 33.769931,25.879638 L 33.778789,25.88318 L 33.787648,25.879638 L 33.79872,25.872553 L 33.807579,25.861926 L 33.816437,25.847757 L 33.834154,25.815877 L 33.85187,25.776913 L 33.867372,25.737948 L 33.880659,25.702525 L 33.887303,25.688356 L 33.893947,25.67773 L 33.898376,25.670645 L 33.90502,25.670645 L 33.907234,25.674188 L 33.911663,25.67773 L 33.911663,25.716694 L 33.911663,25.752117 L 33.909449,25.776913 L 33.907234,25.787539 L 33.907234,25.794624 L 33.900591,25.815877 L 33.898376,25.833589 L 33.896161,25.844215 L 33.891732,25.854842 L 33.885089,25.869011 L 33.874016,25.890264 L 33.862943,25.911518 L 33.849656,25.91506 L 33.836368,25.925687 L 33.823081,25.943398 L 33.816437,25.957567 L 33.809793,25.989447 L 33.805364,26.003616 L 33.796506,26.010701 L 33.785433,26.028412 L 33.767717,26.060292 L 33.75,26.092172 L 33.743356,26.113426 L 33.736713,26.134679 L 33.732283,26.155933 L 33.730069,26.180728 L 33.730069,26.194897 L 33.734498,26.219693 L 33.743356,26.240947 L 33.754429,26.258658 L 33.765502,26.276369 L 33.789862,26.279911 L 33.794291,26.286996 L 33.787648,26.322418 L 33.785433,26.347214 L 33.785433,26.375552 L 33.785433,26.418059 L 33.783219,26.446397 L 33.778789,26.474735 L 33.772146,26.506615 L 33.765502,26.534953 L 33.747785,26.591629 L 33.727854,26.651847 L 33.721211,26.680185 L 33.714567,26.708523 L 33.710138,26.740403 L 33.707923,26.772283 L 33.707923,26.804163 L 33.712352,26.836044 L 33.718996,26.871466 L 33.732283,26.903346 L 33.745571,26.875008 L 33.747785,26.875008 L 33.752215,26.913973 L 33.79872,26.98836 L 33.840797,27.055663 L 33.860728,27.087543 L 33.885089,27.112339 L 33.898376,27.126508 L 33.913878,27.137134 L 33.92938,27.147761 L 33.947096,27.158388 L 33.964813,27.169015 L 33.98253,27.179641 L 33.998031,27.197353 L 34.011319,27.211522 L 34.013533,27.211522 L 34.013533,27.207979 L 34.015748,27.200895 L 34.015748,27.19381 L 34.026821,27.19381 L 34.033465,27.211522 L 34.048967,27.229233 L 34.05561,27.23986 L 34.064469,27.250486 L 34.068898,27.261113 L 34.071112,27.275282 L 34.068898,27.285909 L 34.066683,27.292993 L 34.062254,27.296535 L 34.057825,27.30362 L 34.046752,27.30362 L 34.03125,27.30362 L 34.002461,27.296535 L 33.984744,27.285909 L 33.960384,27.282366 L 33.933809,27.278824 L 33.922736,27.278824 L 33.913878,27.282366 L 33.90502,27.285909 L 33.898376,27.292993 L 33.891732,27.300078 L 33.885089,27.307162 L 33.880659,27.317789 L 33.878445,27.328416 L 33.880659,27.339042 L 33.885089,27.353211 L 33.887303,27.36738 L 33.889518,27.381549 L 33.893947,27.392176 L 33.898376,27.402803 L 33.90502,27.409887 L 33.913878,27.41343 L 33.922736,27.41343 L 33.949311,27.406345 L 33.9781,27.392176 L 33.993602,27.385092 L 34.009104,27.378007 L 34.026821,27.374465 L 34.044537,27.370923 L 34.071112,27.374465 L 34.095472,27.374465 L 34.124262,27.381549 L 34.141978,27.385092 L 34.148622,27.385092 L 34.15748,27.385092 L 34.166339,27.381549 L 34.172982,27.374465 L 34.179626,27.36738 L 34.184055,27.360296 L 34.188484,27.349669 L 34.190699,27.3355 L 34.192913,27.321331 L 34.188484,27.307162 L 34.181841,27.289451 L 34.172982,27.275282 L 34.164124,27.257571 L 34.153051,27.23986 L 34.144193,27.222148 L 34.139764,27.211522 L 34.137549,27.197353 L 34.135335,27.186726 L 34.135335,27.172557 L 34.135335,27.158388 L 34.139764,27.147761 L 34.144193,27.133592 L 34.150837,27.122965 L 34.159695,27.112339 L 34.168553,27.105254 L 34.177411,27.101712 L 34.18627,27.09817 L 34.239419,27.09817 L 34.25935,27.101712 L 34.277067,27.112339 L 34.292569,27.126508 L 34.308071,27.137134 L 34.321358,27.144219 L 34.339075,27.16193 L 34.345719,27.169015 L 34.352362,27.179641 L 34.356791,27.190268 L 34.356791,27.200895 L 34.356791,27.246944 L 34.356791,27.296535 L 34.381152,27.317789 L 34.403297,27.331958 L 34.423228,27.339042 L 34.440945,27.342585 L 34.460876,27.349669 L 34.480807,27.363838 L 34.49188,27.374465 L 34.502953,27.385092 L 34.51624,27.402803 L 34.529528,27.420514 L 34.551673,27.455936 L 34.56939,27.484274 L 34.582677,27.484274 L 34.587106,27.491359 L 34.589321,27.498443 L 34.59375,27.501986 L 34.600394,27.501986 L 34.620325,27.501986 L 34.635827,27.501986 L 34.651329,27.494901 L 34.669045,27.487817 L 34.684547,27.47719 L 34.700049,27.463021 L 34.713337,27.448852 L 34.717766,27.441767 L 34.722195,27.434683 L 34.724409,27.427598 L 34.724409,27.416972 L 34.724409,27.388634 L 34.724409,27.378007 L 34.71998,27.36738 L 34.713337,27.356754 L 34.706693,27.349669 L 34.688976,27.339042 L 34.669045,27.3355 L 34.644685,27.346127 L 34.631398,27.353211 L 34.626969,27.353211 L 34.609252,27.331958 L 34.584892,27.300078 L 34.573819,27.289451 L 34.560531,27.278824 L 34.547244,27.27174 L 34.531742,27.264655 L 34.507382,27.246944 L 34.483022,27.225691 L 34.474163,27.211522 L 34.46752,27.190268 L 34.460876,27.165472 L 34.458661,27.140677 L 34.460876,27.119423 L 34.465305,27.094628 L 34.469734,27.076916 L 34.478593,27.062747 L 34.494094,27.034409 L 34.505167,26.998987 L 34.511811,26.95648 L 34.518455,26.913973 L 34.518455,26.89272 L 34.518455,26.860839 L 34.518455,26.84667 L 34.520669,26.836044 L 34.522884,26.825417 L 34.525098,26.821875 L 34.531742,26.821875 L 34.533957,26.797079 L 34.531742,26.768741 L 34.527313,26.743945 L 34.520669,26.71915 L 34.511811,26.697896 L 34.505167,26.676643 L 34.500738,26.651847 L 34.498524,26.630593 L 34.500738,26.627051 L 34.502953,26.623509 L 34.507382,26.619967 L 34.511811,26.612882 L 34.522884,26.60934 L 34.538386,26.602256 L 34.553888,26.595171 L 34.567175,26.588087 L 34.580463,26.581002 L 34.587106,26.566833 L 34.598179,26.566833 L 34.615896,26.549122 L 34.631398,26.527868 L 34.6469,26.503073 L 34.660187,26.478277 L 34.686762,26.478277 L 34.700049,26.446397 L 34.71998,26.418059 L 34.744341,26.386179 L 34.768701,26.350756 L 34.793061,26.318876 L 34.815207,26.283454 L 34.824065,26.265742 L 34.832923,26.248031 L 34.837352,26.23032 L 34.841781,26.216151 L 34.848425,26.219693 L 34.852854,26.223235 L 34.857283,26.219693 L 34.863927,26.212609 L 34.868356,26.19844 L 34.875,26.184271 L 34.888287,26.141764 L 34.89936,26.095715 L 34.921506,26.003616 L 34.932579,25.954025 L 34.941437,25.922145 L 34.945866,25.904433 L 34.95251,25.886722 L 34.968012,25.869011 L 34.972441,25.833589 L 34.974656,25.798166 L 34.974656,25.755659 L 34.972441,25.716694 L 34.970226,25.674188 L 34.965797,25.635223 L 34.954724,25.553751 L 34.939222,25.475822 L 34.932579,25.458111 L 34.92815,25.433315 L 34.92372,25.404977 L 34.919291,25.390808 L 34.919291,25.380181 L 34.921506,25.373097 L 34.92372,25.369554 L 34.925935,25.366012 L 34.930364,25.366012 L 34.92815,25.323505 L 34.92372,25.273914 L 34.917077,25.227865 L 34.910433,25.185358 L 34.906004,25.139309 L 34.901575,25.093259 L 34.897146,25.04721 L 34.894931,24.997619 L 34.901575,24.98345 L 34.908219,24.972823 L 34.903789,24.933858 L 34.894931,24.894894 L 34.890502,24.848845 L 34.888287,24.80988 L 34.888287,24.749662 L 34.890502,24.742577 L 34.892717,24.735493 L 34.894931,24.710697 L 34.89936,24.682359 L 34.906004,24.657563 L 34.914862,24.629225 L 34.925935,24.607972 L 34.937008,24.586718 L 34.943652,24.579634 L 34.950295,24.576092 L 34.956939,24.572549 L 34.961368,24.569007 L 34.963583,24.565465 L 34.963583,24.558381 L 34.965797,24.554838 L 34.970226,24.554838 L 34.97687,24.554838 L 34.981299,24.558381 L 34.983514,24.561923 L 34.972441,24.576092 L 34.959154,24.593803 L 34.954724,24.600887 L 34.948081,24.611514 L 34.943652,24.622141 L 34.941437,24.632768 L 34.941437,24.650479 L 34.943652,24.671732 L 34.950295,24.692986 L 34.961368,24.721324 L 34.972441,24.753204 L 34.981299,24.781542 L 34.992372,24.816964 L 34.999016,24.845302 L 35.00123,24.877183 L 35.010089,24.859471 L 35.016732,24.848845 L 35.023376,24.852387 L 35.03002,24.855929 L 35.036663,24.863014 L 35.041093,24.87364 L 35.049951,24.901978 L 35.058809,24.933858 L 35.065453,24.965739 L 35.072096,24.994077 L 35.076526,25.004703 L 35.07874,25.01533 L 35.083169,25.022415 L 35.087598,25.025957 L 35.087598,25.01533 L 35.089813,25.004703 L 35.092028,24.997619 L 35.096457,24.994077 L 35.123031,25.029499 L 35.147392,25.072006 L 35.15625,25.096802 L 35.165108,25.121597 L 35.169537,25.149935 L 35.171752,25.1889 L 35.171752,25.203069 L 35.167323,25.256203 L 35.160679,25.291625 L 35.160679,25.302252 L 35.169537,25.29871 L 35.178396,25.288083 L 35.189469,25.273914 L 35.198327,25.25266 L 35.218258,25.217238 L 35.227116,25.185358 L 35.240404,25.149935 L 35.253691,25.118055 L 35.266978,25.082633 L 35.28248,25.054295 L 35.286909,25.054295 L 35.291339,25.057837 L 35.300197,25.029499 L 35.309055,24.994077 L 35.313484,24.976365 L 35.320128,24.958654 L 35.324557,24.948027 L 35.331201,24.937401 L 35.328986,24.937401 L 35.371063,24.795711 L 35.375492,24.806338 L 35.377707,24.820507 L 35.379921,24.838218 L 35.379921,24.855929 L 35.38878,24.848845 L 35.395423,24.834676 L 35.402067,24.816964 L 35.406496,24.795711 L 35.41314,24.742577 L 35.415354,24.678817 L 35.417569,24.615056 L 35.419783,24.554838 L 35.421998,24.5265 L 35.424213,24.505247 L 35.428642,24.483993 L 35.433071,24.469824 L 35.426427,24.423775 L 35.419783,24.374184 L 35.415354,24.349388 L 35.410925,24.328135 L 35.406496,24.303339 L 35.402067,24.28917 L 35.393209,24.253747 L 35.38435,24.221867 L 35.371063,24.186445 L 35.357776,24.151022 L 35.340059,24.1156 L 35.322343,24.080178 L 35.304626,24.044755 L 35.284695,24.012875 L 35.262549,23.980995 L 35.240404,23.952657 L 35.216043,23.927861 L 35.193898,23.903065 L 35.169537,23.885354 L 35.145177,23.871185 L 35.123031,23.864101 L 35.098671,23.857016 L 35.076526,23.853474 L 35.05438,23.842847 L 35.027805,23.839305 L 35.00123,23.839305 L 34.974656,23.839305 L 34.95251,23.839305 L 34.930364,23.842847 L 34.903789,23.846389 L 34.883858,23.853474 L 34.857283,23.857016 L 34.837352,23.867643 L 34.815207,23.874727 L 34.795276,23.885354 L 34.770915,23.895981 L 34.750984,23.91015 L 34.733268,23.913692 L 34.704478,23.94203 L 34.673474,23.963283 L 34.662402,23.956199 L 34.6469,23.945572 L 34.640256,23.949114 L 34.633612,23.952657 L 34.649114,23.966826 L 34.655758,23.977452 L 34.644685,23.995164 L 34.622539,24.030586 L 34.595965,24.069551 L 34.580463,24.090804 L 34.564961,24.119142 L 34.547244,24.154565 L 34.531742,24.193529 L 34.520669,24.228952 L 34.509596,24.267916 L 34.498524,24.310423 L 34.489665,24.335219 L 34.485236,24.363557 L 34.480807,24.395437 L 34.476378,24.427317 L 34.469734,24.487536 L 34.463091,24.547754 L 34.452018,24.569007 L 34.445374,24.576092 L 34.449803,24.675275 L 34.454232,24.792169 L 34.458661,24.848845 L 34.465305,24.901978 L 34.469734,24.926774 L 34.474163,24.948027 L 34.478593,24.965739 L 34.483022,24.98345 L 34.485236,25.040126 L 34.494094,25.064921 L 34.500738,25.093259 L 34.507382,25.121597 L 34.511811,25.153478 L 34.51624,25.1889 L 34.522884,25.22078 L 34.529528,25.249118 L 34.536171,25.277456 L 34.547244,25.312879 L 34.556102,25.351843 L 34.567175,25.397892 L 34.576033,25.436857 L 34.582677,25.47228 L 34.589321,25.511244 L 34.59375,25.553751 L 34.595965,25.5998 L 34.598179,25.649392 L 34.598179,25.70961 L 34.604823,25.720237 L 34.609252,25.727321 L 34.609252,25.737948 L 34.609252,25.762744 L 34.611467,25.791082 L 34.611467,25.826504 L 34.611467,25.872553 L 34.609252,25.91506 L 34.600394,25.996532 L 34.587106,26.078003 L 34.578248,26.12051 L 34.56939,26.159475 L 34.558317,26.194897 L 34.54503,26.23032 L 34.529528,26.269285 L 34.514026,26.308249 L 34.496309,26.347214 L 34.478593,26.379094 L 34.469734,26.396805 L 34.458661,26.414517 L 34.454232,26.425143 L 34.447589,26.432228 L 34.443159,26.439312 L 34.436516,26.442855 L 34.436516,26.449939 L 34.434301,26.453481 L 34.432087,26.453481 L 34.425443,26.457024 L 34.436516,26.439312 L 34.436516,26.442855 L 34.440945,26.425143 L 34.449803,26.400348 L 34.460876,26.37201 L 34.476378,26.336587 L 34.505167,26.276369 L 34.525098,26.233862 L 34.536171,26.205524 L 34.54503,26.177186 L 34.553888,26.148848 L 34.560531,26.12051 L 34.571604,26.05675 L 34.580463,25.996532 L 34.582677,25.932771 L 34.584892,25.869011 L 34.584892,25.805251 L 34.584892,25.74149 L 34.582677,25.70961 L 34.576033,25.681272 L 34.573819,25.649392 L 34.571604,25.613969 L 34.567175,25.592716 L 34.560531,25.557293 L 34.553888,25.518329 L 34.551673,25.497075 L 34.536171,25.436857 L 34.51624,25.355386 L 34.494094,25.273914 L 34.483022,25.231407 L 34.474163,25.185358 L 34.465305,25.142851 L 34.460876,25.103886 L 34.452018,25.040126 L 34.440945,24.976365 L 34.429872,24.912605 L 34.418799,24.852387 L 34.412156,24.816964 L 34.409941,24.778 L 34.407726,24.739035 L 34.407726,24.70007 L 34.409941,24.622141 L 34.416585,24.547754 L 34.409941,24.540669 L 34.407726,24.540669 L 34.401083,24.572549 L 34.394439,24.586718 L 34.39001,24.600887 L 34.387795,24.607972 L 34.383366,24.611514 L 34.378937,24.618599 L 34.372293,24.618599 L 34.372293,24.547754 L 34.374508,24.512331 L 34.381152,24.473367 L 34.387795,24.437944 L 34.392224,24.406064 L 34.398868,24.377726 L 34.409941,24.342304 L 34.421014,24.306881 L 34.425443,24.28917 L 34.425443,24.285628 L 34.425443,24.282085 L 34.425443,24.278543 L 34.423228,24.275001 L 34.418799,24.275001 L 34.409941,24.28917 L 34.394439,24.303339 L 34.392224,24.299797 L 34.39001,24.292712 L 34.394439,24.264374 L 34.401083,24.228952 L 34.412156,24.193529 L 34.427657,24.158107 L 34.443159,24.122684 L 34.460876,24.090804 L 34.476378,24.062466 L 34.49188,24.044755 L 34.509596,24.023502 L 34.527313,24.00579 L 34.542815,23.991621 L 34.556102,23.980995 L 34.589321,23.963283 L 34.629183,23.945572 z M 34.024606,26.290538 L 34.004675,26.29408 L 34.00689,26.304707 L 34.013533,26.318876 L 34.020177,26.329503 L 34.026821,26.343672 L 34.037894,26.364925 L 34.048967,26.389721 L 34.060039,26.414517 L 34.068898,26.442855 L 34.077756,26.471193 L 34.086614,26.49953 L 34.095472,26.520784 L 34.104331,26.556206 L 34.110974,26.591629 L 34.117618,26.619967 L 34.122047,26.648305 L 34.128691,26.687269 L 34.130906,26.729776 L 34.13312,26.768741 L 34.135335,26.768741 L 34.141978,26.733319 L 34.150837,26.740403 L 34.155266,26.75103 L 34.161909,26.765199 L 34.166339,26.779368 L 34.172982,26.821875 L 34.177411,26.864382 L 34.181841,26.906889 L 34.184055,26.942311 L 34.18627,26.960022 L 34.188484,26.970649 L 34.190699,26.977733 L 34.195128,26.981276 L 34.195128,26.970649 L 34.197343,26.95648 L 34.201772,26.945853 L 34.208415,26.938769 L 34.212844,26.942311 L 34.217274,26.945853 L 34.219488,26.952938 L 34.221703,26.960022 L 34.223917,26.977733 L 34.226132,26.991902 L 34.223917,27.013156 L 34.219488,27.027325 L 34.21063,27.041494 L 34.203986,27.048578 L 34.181841,27.062747 L 34.161909,27.069832 L 34.137549,27.073374 L 34.113189,27.073374 L 34.091043,27.069832 L 34.066683,27.062747 L 34.048967,27.055663 L 34.033465,27.045036 L 34.015748,27.030867 L 33.998031,27.016698 L 33.980315,26.995445 L 33.962598,26.974191 L 33.947096,26.952938 L 33.92938,26.928142 L 33.913878,26.903346 L 33.900591,26.875008 L 33.885089,26.84667 L 33.874016,26.818332 L 33.862943,26.789994 L 33.854085,26.765199 L 33.847441,26.736861 L 33.843012,26.708523 L 33.836368,26.676643 L 33.82751,26.644762 L 33.823081,26.612882 L 33.818652,26.570375 L 33.814222,26.534953 L 33.809793,26.49953 L 33.807579,26.453481 L 33.807579,26.410974 L 33.807579,26.361383 L 33.809793,26.311792 L 33.809793,26.297623 L 33.812008,26.290538 L 33.816437,26.283454 L 33.820866,26.276369 L 33.831939,26.272827 L 33.845226,26.265742 L 33.867372,26.248031 L 33.887303,26.23032 L 33.90502,26.205524 L 33.922736,26.184271 L 33.922736,26.166559 L 33.92938,26.159475 L 33.944882,26.187813 L 33.964813,26.223235 L 33.975886,26.237404 L 33.98253,26.255116 L 33.991388,26.269285 L 34.00689,26.283454 L 34.011319,26.279911 L 34.020177,26.279911 L 34.029035,26.276369 L 34.040108,26.272827 L 34.024606,26.290538 z M 34.053396,26.255116 L 34.057825,26.226778 L 34.05561,26.226778 L 34.037894,26.194897 L 34.037894,26.180728 L 34.029035,26.170102 L 34.026821,26.159475 L 34.002461,26.063834 L 34.00689,26.067377 L 34.011319,26.078003 L 34.017963,26.092172 L 34.024606,26.106341 L 34.033465,26.141764 L 34.037894,26.166559 L 34.048967,26.180728 L 34.060039,26.19844 L 34.066683,26.209066 L 34.075541,26.216151 L 34.0844,26.219693 L 34.095472,26.223235 L 34.106545,26.219693 L 34.115404,26.216151 L 34.122047,26.212609 L 34.128691,26.205524 L 34.13312,26.19844 L 34.137549,26.191355 L 34.139764,26.180728 L 34.139764,26.170102 L 34.137549,26.145306 L 34.13312,26.12051 L 34.126476,26.099257 L 34.119833,26.078003 L 34.126476,26.081546 L 34.137549,26.099257 L 34.141978,26.113426 L 34.146407,26.124053 L 34.148622,26.134679 L 34.150837,26.145306 L 34.150837,26.187813 L 34.148622,26.194897 L 34.146407,26.201982 L 34.144193,26.209066 L 34.139764,26.216151 L 34.130906,26.223235 L 34.119833,26.23032 L 34.093258,26.237404 L 34.075541,26.240947 L 34.071112,26.251573 L 34.064469,26.258658 L 34.057825,26.258658 L 34.05561,26.265742 L 34.053396,26.272827 L 34.048967,26.272827 L 34.044537,26.276369 L 34.037894,26.272827 L 34.037894,26.269285 L 34.035679,26.265742 L 34.053396,26.255116 z M 34.051181,25.978821 L 34.060039,25.985905 L 34.068898,25.99299 L 34.075541,25.985905 L 34.086614,25.985905 L 34.091043,25.985905 L 34.093258,25.99299 L 34.093258,25.996532 L 34.095472,26.007158 L 34.095472,26.021327 L 34.057825,26.010701 L 34.042323,26.014243 L 34.024606,26.02487 L 34.015748,26.028412 L 34.009104,26.035496 L 34.002461,26.046123 L 34.002461,26.053208 L 34.002461,26.063834 L 33.98253,26.042581 L 33.960384,26.021327 L 33.947096,26.010701 L 33.938238,26.003616 L 33.924951,26.000074 L 33.90502,26.000074 L 33.893947,26.000074 L 33.885089,26.003616 L 33.880659,26.010701 L 33.874016,26.021327 L 33.865157,26.042581 L 33.858514,26.067377 L 33.860728,26.070919 L 33.865157,26.08863 L 33.858514,26.08863 L 33.854085,26.092172 L 33.849656,26.092172 L 33.845226,26.08863 L 33.843012,26.08863 L 33.840797,26.081546 L 33.840797,26.078003 L 33.840797,26.074461 L 33.840797,26.060292 L 33.843012,26.046123 L 33.847441,26.031954 L 33.85187,26.017785 L 33.862943,25.989447 L 33.871801,25.968194 L 33.891732,25.918602 L 33.911663,25.876095 L 33.911663,25.858384 L 33.916093,25.847757 L 33.920522,25.833589 L 33.924951,25.815877 L 33.92938,25.794624 L 33.936024,25.752117 L 33.940453,25.716694 L 33.936024,25.695441 L 33.933809,25.674188 L 33.927165,25.652934 L 33.922736,25.642307 L 33.927165,25.628138 L 33.936024,25.613969 L 33.947096,25.5998 L 33.95374,25.592716 L 33.962598,25.582089 L 33.973671,25.571462 L 33.984744,25.564378 L 33.998031,25.560836 L 34.011319,25.560836 L 34.015748,25.564378 L 34.020177,25.571462 L 34.024606,25.582089 L 34.026821,25.592716 L 34.026821,25.631681 L 34.024606,25.656476 L 34.017963,25.681272 L 34.011319,25.706068 L 34.004675,25.720237 L 33.998031,25.769828 L 33.991388,25.812335 L 33.991388,25.907976 L 33.991388,25.932771 L 33.995817,25.964652 L 33.998031,25.978821 L 34.000246,25.989447 L 34.004675,26.000074 L 34.009104,26.003616 L 34.011319,26.003616 L 34.029035,25.99299 L 34.051181,25.978821 z M 33.614911,25.603343 L 33.619341,25.603343 L 33.621555,25.606885 L 33.62377,25.610427 L 33.62377,25.617512 L 33.621555,25.660019 L 33.617126,25.660019 L 33.614911,25.64585 L 33.614911,25.635223 L 33.614911,25.603343 z M 33.871801,25.606885 L 33.874016,25.610427 L 33.878445,25.624596 L 33.871801,25.64585 L 33.862943,25.67773 L 33.849656,25.713152 L 33.836368,25.752117 L 33.820866,25.787539 L 33.80315,25.81942 L 33.796506,25.830046 L 33.789862,25.840673 L 33.783219,25.844215 L 33.778789,25.847757 L 33.772146,25.840673 L 33.767717,25.830046 L 33.763287,25.815877 L 33.763287,25.805251 L 33.77436,25.684814 L 33.772146,25.684814 L 33.812008,25.656476 L 33.823081,25.649392 L 33.871801,25.606885 z M 33.572835,25.592716 L 33.581693,25.592716 L 33.590551,25.592716 L 33.599409,25.585631 L 33.606053,25.582089 L 33.608268,25.582089 L 33.610482,25.582089 L 33.612697,25.585631 L 33.612697,25.592716 L 33.610482,25.596258 L 33.608268,25.5998 L 33.606053,25.5998 L 33.601624,25.5998 L 33.601624,25.613969 L 33.603839,25.624596 L 33.601624,25.635223 L 33.597195,25.64585 L 33.588337,25.631681 L 33.581693,25.621054 L 33.577264,25.617512 L 33.57062,25.617512 L 33.566191,25.613969 L 33.566191,25.606885 L 33.568406,25.596258 L 33.572835,25.592716 z M 33.980315,25.174731 L 33.980315,25.25266 L 33.973671,25.284541 L 33.969242,25.316421 L 33.951526,25.323505 L 33.920522,25.323505 L 33.889518,25.327048 L 33.869587,25.327048 L 33.860728,25.29871 L 33.854085,25.273914 L 33.85187,25.245576 L 33.85187,25.213696 L 33.85187,25.185358 L 33.856299,25.160562 L 33.862943,25.139309 L 33.871801,25.121597 L 33.880659,25.103886 L 33.891732,25.093259 L 33.902805,25.086175 L 33.916093,25.07909 L 33.927165,25.07909 L 33.938238,25.07909 L 33.949311,25.086175 L 33.960384,25.096802 L 33.967028,25.107428 L 33.973671,25.12514 L 33.9781,25.149935 L 33.980315,25.174731 z M 34.073327,24.607972 L 34.073327,24.597345 L 34.075541,24.583176 L 34.07997,24.583176 L 34.07997,24.597345 L 34.082185,24.607972 L 34.082185,24.632768 L 34.07997,24.646937 L 34.07997,24.657563 L 34.075541,24.657563 L 34.073327,24.650479 L 34.073327,24.639852 L 34.073327,24.607972 z M 33.772146,24.441486 L 33.776575,24.434402 L 33.783219,24.43086 L 33.785433,24.427317 L 33.789862,24.43086 L 33.792077,24.43086 L 33.794291,24.437944 L 33.785433,24.437944 L 33.778789,24.441486 L 33.77436,24.441486 L 33.772146,24.448571 L 33.767717,24.455655 L 33.758858,24.46274 L 33.752215,24.469824 L 33.734498,24.480451 L 33.721211,24.487536 L 33.69685,24.512331 L 33.670276,24.537127 L 33.652559,24.558381 L 33.62377,24.597345 L 33.599409,24.632768 L 33.588337,24.657563 L 33.590551,24.664648 L 33.59498,24.675275 L 33.590551,24.696528 L 33.579478,24.728408 L 33.566191,24.763831 L 33.559547,24.785084 L 33.552904,24.80988 L 33.54626,24.848845 L 33.537402,24.891351 L 33.535187,24.912605 L 33.535187,24.933858 L 33.535187,24.940943 L 33.535187,24.940943 L 33.537402,24.944485 L 33.541831,24.944485 L 33.541831,24.933858 L 33.544045,24.926774 L 33.54626,24.919689 L 33.550689,24.916147 L 33.552904,24.923232 L 33.557333,24.940943 L 33.561762,24.969281 L 33.566191,24.997619 L 33.575049,25.057837 L 33.579478,25.089717 L 33.588337,25.132224 L 33.599409,25.167647 L 33.608268,25.192442 L 33.617126,25.213696 L 33.62377,25.238491 L 33.628199,25.263287 L 33.630413,25.259745 L 33.630413,25.256203 L 33.630413,25.249118 L 33.630413,25.238491 L 33.625984,25.213696 L 33.619341,25.185358 L 33.606053,25.132224 L 33.597195,25.100344 L 33.588337,25.054295 L 33.583907,25.004703 L 33.583907,24.965739 L 33.588337,24.930316 L 33.592766,24.894894 L 33.599409,24.859471 L 33.614911,24.816964 L 33.625984,24.781542 L 33.62377,24.778 L 33.619341,24.774457 L 33.610482,24.774457 L 33.612697,24.753204 L 33.621555,24.728408 L 33.630413,24.703613 L 33.643701,24.678817 L 33.668061,24.632768 L 33.690207,24.597345 L 33.712352,24.572549 L 33.75,24.540669 L 33.769931,24.522958 L 33.787648,24.512331 L 33.805364,24.501705 L 33.818652,24.498162 L 33.82751,24.483993 L 33.840797,24.473367 L 33.854085,24.466282 L 33.871801,24.459198 L 33.90502,24.452113 L 33.938238,24.445029 L 33.942667,24.445029 L 33.958169,24.448571 L 33.9781,24.452113 L 34.000246,24.455655 L 34.022392,24.466282 L 34.042323,24.476909 L 34.060039,24.491078 L 34.066683,24.498162 L 34.071112,24.505247 L 34.073327,24.515874 L 34.075541,24.522958 L 34.073327,24.540669 L 34.068898,24.558381 L 34.064469,24.569007 L 34.062254,24.576092 L 34.057825,24.579634 L 34.05561,24.579634 L 33.984744,24.572549 L 33.92938,24.561923 L 33.900591,24.558381 L 33.871801,24.561923 L 33.856299,24.565465 L 33.840797,24.572549 L 33.823081,24.579634 L 33.80315,24.593803 L 33.792077,24.607972 L 33.781004,24.622141 L 33.767717,24.63631 L 33.754429,24.650479 L 33.745571,24.664648 L 33.734498,24.682359 L 33.72564,24.696528 L 33.712352,24.714239 L 33.70128,24.735493 L 33.694636,24.749662 L 33.703494,24.746119 L 33.710138,24.739035 L 33.714567,24.739035 L 33.716781,24.742577 L 33.705709,24.763831 L 33.692421,24.795711 L 33.674705,24.845302 L 33.661417,24.898436 L 33.654774,24.926774 L 33.652559,24.955112 L 33.64813,24.98345 L 33.64813,25.011788 L 33.64813,25.018872 L 33.64813,25.025957 L 33.650344,25.029499 L 33.654774,25.029499 L 33.659203,25.033041 L 33.661417,25.082633 L 33.663632,25.082633 L 33.67249,25.160562 L 33.679134,25.167647 L 33.681348,25.181816 L 33.685778,25.199527 L 33.687992,25.217238 L 33.687992,25.259745 L 33.685778,25.295167 L 33.681348,25.312879 L 33.679134,25.327048 L 33.674705,25.337674 L 33.668061,25.351843 L 33.661417,25.366012 L 33.656988,25.376639 L 33.652559,25.383723 L 33.643701,25.39435 L 33.621555,25.288083 L 33.606053,25.245576 L 33.590551,25.203069 L 33.575049,25.160562 L 33.557333,25.121597 L 33.541831,25.075548 L 33.530758,25.029499 L 33.526329,25.004703 L 33.519685,24.979908 L 33.515256,24.95157 L 33.513041,24.923232 L 33.513041,24.845302 L 33.515256,24.816964 L 33.524114,24.781542 L 33.532972,24.753204 L 33.541831,24.728408 L 33.541831,24.714239 L 33.544045,24.70007 L 33.548474,24.685901 L 33.550689,24.671732 L 33.561762,24.646937 L 33.577264,24.622141 L 33.606053,24.579634 L 33.632628,24.544212 L 33.659203,24.512331 L 33.694636,24.480451 L 33.714567,24.466282 L 33.734498,24.452113 L 33.752215,24.445029 L 33.772146,24.441486 z M 34.589321,24.168734 L 34.591535,24.161649 L 34.595965,24.151022 L 34.600394,24.136853 L 34.609252,24.122684 L 34.629183,24.094346 L 34.651329,24.062466 L 34.697835,24.00579 L 34.731053,23.970368 L 34.753199,23.949114 L 34.77313,23.931403 L 34.795276,23.917234 L 34.819636,23.899523 L 34.841781,23.888896 L 34.881644,23.881812 L 34.92815,23.874727 L 34.981299,23.874727 L 35.007874,23.874727 L 35.034449,23.87827 L 35.058809,23.885354 L 35.083169,23.888896 L 35.1031,23.899523 L 35.120817,23.91015 L 35.136319,23.924319 L 35.145177,23.938488 L 35.142963,23.945572 L 35.138533,23.945572 L 35.123031,23.945572 L 35.109744,23.94203 L 35.096457,23.934946 L 35.083169,23.934946 L 35.069882,23.931403 L 35.036663,23.931403 L 35.007874,23.931403 L 34.996801,23.934946 L 34.974656,23.94203 L 34.950295,23.952657 L 34.937008,23.959741 L 34.92372,23.970368 L 34.908219,23.984537 L 34.892717,23.998706 L 34.875,24.002248 L 34.886073,23.977452 L 34.894931,23.949114 L 34.886073,23.956199 L 34.875,23.966826 L 34.859498,23.984537 L 34.843996,24.00579 L 34.812992,24.048297 L 34.790846,24.076635 L 34.775344,24.097889 L 34.757628,24.122684 L 34.739911,24.154565 L 34.722195,24.186445 L 34.704478,24.221867 L 34.688976,24.25729 L 34.675689,24.28917 L 34.666831,24.32105 L 34.660187,24.345846 L 34.653543,24.374184 L 34.649114,24.39898 L 34.644685,24.427317 L 34.638041,24.459198 L 34.631398,24.483993 L 34.631398,24.515874 L 34.626969,24.547754 L 34.622539,24.576092 L 34.620325,24.611514 L 34.620325,24.643394 L 34.615896,24.675275 L 34.607037,24.664648 L 34.602608,24.66819 L 34.600394,24.675275 L 34.598179,24.685901 L 34.598179,24.696528 L 34.598179,24.703613 L 34.600394,24.724866 L 34.604823,24.756746 L 34.607037,24.795711 L 34.609252,24.820507 L 34.613681,24.852387 L 34.615896,24.880725 L 34.620325,24.90552 L 34.620325,24.933858 L 34.622539,24.95157 L 34.626969,24.986992 L 34.633612,25.022415 L 34.635827,25.040126 L 34.6469,25.093259 L 34.655758,25.139309 L 34.653543,25.146393 L 34.649114,25.153478 L 34.657972,25.195985 L 34.666831,25.242034 L 34.669045,25.266829 L 34.673474,25.280998 L 34.675689,25.29871 L 34.677904,25.33059 L 34.684547,25.373097 L 34.688976,25.422688 L 34.691191,25.468737 L 34.69562,25.514787 L 34.700049,25.557293 L 34.704478,25.5998 L 34.711122,25.638765 L 34.715551,25.681272 L 34.71998,25.727321 L 34.722195,25.77337 L 34.724409,25.812335 L 34.722195,25.872553 L 34.722195,25.904433 L 34.71998,25.929229 L 34.717766,25.939856 L 34.715551,25.94694 L 34.713337,25.950483 L 34.711122,25.954025 L 34.704478,25.954025 L 34.700049,25.950483 L 34.69562,25.94694 L 34.69562,25.978821 L 34.69562,26.003616 L 34.693406,26.028412 L 34.691191,26.05675 L 34.684547,26.109884 L 34.675689,26.152391 L 34.662402,26.191355 L 34.651329,26.233862 L 34.644685,26.251573 L 34.635827,26.269285 L 34.629183,26.286996 L 34.620325,26.304707 L 34.604823,26.340129 L 34.587106,26.37201 L 34.567175,26.40389 L 34.549459,26.432228 L 34.527313,26.457024 L 34.505167,26.481819 L 34.494094,26.495988 L 34.483022,26.503073 L 34.469734,26.513699 L 34.454232,26.520784 L 34.445374,26.503073 L 34.436516,26.488904 L 34.447589,26.46765 L 34.469734,26.428686 L 34.49188,26.389721 L 34.505167,26.364925 L 34.522884,26.336587 L 34.538386,26.304707 L 34.551673,26.272827 L 34.56939,26.240947 L 34.580463,26.212609 L 34.59375,26.180728 L 34.607037,26.138222 L 34.620325,26.095715 L 34.629183,26.049665 L 34.638041,26.000074 L 34.64247,25.954025 L 34.644685,25.911518 L 34.640256,25.907976 L 34.638041,25.907976 L 34.635827,25.904433 L 34.633612,25.897349 L 34.633612,25.893807 L 34.638041,25.879638 L 34.640256,25.854842 L 34.64247,25.833589 L 34.64247,25.808793 L 34.64247,25.652934 L 34.64247,25.638765 L 34.638041,25.631681 L 34.626969,25.631681 L 34.624754,25.628138 L 34.622539,25.617512 L 34.622539,25.5998 L 34.620325,25.575005 L 34.61811,25.550209 L 34.613681,25.507702 L 34.607037,25.458111 L 34.59375,25.369554 L 34.578248,25.284541 L 34.560531,25.203069 L 34.54503,25.118055 L 34.536171,25.072006 L 34.531742,25.029499 L 34.527313,25.001161 L 34.525098,24.98345 L 34.518455,24.969281 L 34.507382,24.955112 L 34.502953,24.898436 L 34.496309,24.852387 L 34.49188,24.813422 L 34.49188,24.774457 L 34.49188,24.739035 L 34.496309,24.703613 L 34.502953,24.632768 L 34.505167,24.558381 L 34.500738,24.554838 L 34.498524,24.554838 L 34.496309,24.551296 L 34.494094,24.544212 L 34.494094,24.537127 L 34.498524,24.508789 L 34.507382,24.46274 L 34.518455,24.409606 L 34.533957,24.349388 L 34.551673,24.28917 L 34.571604,24.239579 L 34.580463,24.218325 L 34.589321,24.200614 L 34.598179,24.189987 L 34.604823,24.182903 L 34.604823,24.172276 L 34.589321,24.168734 z "
         style="fill:#000000;fill-opacity:1;fill-rule:evenodd;stroke:none"
         id="path2325" />
      <path
         d="M 34.029035,26.276369 L 34.020177,26.279911 L 34.011319,26.279911 L 34.00689,26.283454 L 33.991388,26.269285 L 33.98253,26.255116 L 33.975886,26.237404 L 33.964813,26.223235 L 33.944882,26.187813 L 33.92938,26.159475 L 33.922736,26.166559 L 33.922736,26.184271 L 33.90502,26.205524 L 33.887303,26.23032 L 33.867372,26.248031 L 33.845226,26.265742 L 33.831939,26.272827 L 33.820866,26.276369 L 33.816437,26.283454 L 33.812008,26.290538 L 33.809793,26.297623 L 33.809793,26.311792 L 33.807579,26.361383 L 33.807579,26.410974 L 33.807579,26.453481 L 33.809793,26.49953 L 33.814222,26.534953 L 33.818652,26.570375 L 33.823081,26.612882 L 33.82751,26.644762 L 33.836368,26.676643 L 33.843012,26.708523 L 33.847441,26.736861 L 33.854085,26.765199 L 33.862943,26.789994 L 33.874016,26.818332 L 33.885089,26.84667 L 33.900591,26.875008 L 33.913878,26.903346 L 33.92938,26.928142 L 33.947096,26.952938 L 33.962598,26.974191 L 33.980315,26.995445 L 33.998031,27.016698 L 34.015748,27.030867 L 34.033465,27.045036 L 34.048967,27.055663 L 34.066683,27.062747 L 34.091043,27.069832 L 34.113189,27.073374 L 34.137549,27.073374 L 34.161909,27.069832 L 34.181841,27.062747 L 34.203986,27.048578 L 34.21063,27.041494 L 34.219488,27.027325 L 34.223917,27.013156 L 34.226132,26.991902 L 34.223917,26.977733 L 34.221703,26.960022 L 34.219488,26.952938 L 34.217274,26.945853 L 34.212844,26.942311 L 34.208415,26.938769 L 34.201772,26.945853 L 34.197343,26.95648 L 34.195128,26.970649 L 34.195128,26.981276 L 34.190699,26.977733 L 34.188484,26.970649 L 34.18627,26.960022 L 34.184055,26.942311 L 34.181841,26.906889 L 34.177411,26.864382 L 34.172982,26.821875 L 34.166339,26.779368 L 34.161909,26.765199 L 34.155266,26.75103 L 34.150837,26.740403 L 34.141978,26.733319 L 34.135335,26.768741 L 34.13312,26.768741 L 34.130906,26.729776 L 34.128691,26.687269 L 34.122047,26.648305 L 34.117618,26.619967 L 34.110974,26.591629 L 34.104331,26.556206 L 34.095472,26.520784 L 34.086614,26.49953 L 34.077756,26.471193 L 34.068898,26.442855 L 34.060039,26.414517 L 34.048967,26.389721 L 34.037894,26.364925 L 34.026821,26.343672 L 34.020177,26.329503 L 34.013533,26.318876 L 34.00689,26.304707 L 34.004675,26.29408 L 34.024606,26.290538 L 34.040108,26.272827 L 34.029035,26.276369 z "
         style="fill:#ffffff;fill-opacity:1;fill-rule:evenodd;stroke:none"
         id="path2327" />
    </g>
  </g>
</svg>
